<svg width="16" height="15" viewBox="0 0 16 15" fill="none" xmlns="http://www.w3.org/2000/svg">
<path d="M2.80957 14.7549H13.1832C14.8179 14.7549 15.6692 13.9111 15.6692 12.299V3.13072C15.6692 1.51855 14.8179 0.674805 13.1832 0.674805H2.80957C1.18234 0.674805 0.331055 1.51102 0.331055 3.13072V12.299C0.331055 13.9111 1.18234 14.7549 2.80957 14.7549ZM2.80204 13.2557C2.17676 13.2557 1.83022 12.9318 1.83022 12.2688V5.33803C1.83022 4.67508 2.17676 4.35114 2.80204 4.35114H13.1907C13.816 4.35114 14.1625 4.67508 14.1625 5.33803V12.2688C14.1625 12.9318 13.816 13.2557 13.1907 13.2557H2.80204ZM6.54618 6.9502H6.99065C7.26186 6.9502 7.35226 6.86733 7.35226 6.60366V6.15918C7.35226 5.88797 7.26186 5.80511 6.99065 5.80511H6.54618C6.27497 5.80511 6.18457 5.88797 6.18457 6.15918V6.60366C6.18457 6.86733 6.27497 6.9502 6.54618 6.9502ZM9.00963 6.9502H9.4541C9.71777 6.9502 9.80818 6.86733 9.80818 6.60366V6.15918C9.80818 5.88797 9.71777 5.80511 9.4541 5.80511H9.00963C8.73842 5.80511 8.64802 5.88797 8.64802 6.15918V6.60366C8.64802 6.86733 8.73842 6.9502 9.00963 6.9502ZM11.4655 6.9502H11.91C12.1812 6.9502 12.2716 6.86733 12.2716 6.60366V6.15918C12.2716 5.88797 12.1812 5.80511 11.91 5.80511H11.4655C11.2019 5.80511 11.1115 5.88797 11.1115 6.15918V6.60366C11.1115 6.86733 11.2019 6.9502 11.4655 6.9502ZM4.09026 9.37598H4.5272C4.79841 9.37598 4.88881 9.29311 4.88881 9.0219V8.57743C4.88881 8.31376 4.79841 8.23089 4.5272 8.23089H4.09026C3.81906 8.23089 3.72866 8.31376 3.72866 8.57743V9.0219C3.72866 9.29311 3.81906 9.37598 4.09026 9.37598ZM6.54618 9.37598H6.99065C7.26186 9.37598 7.35226 9.29311 7.35226 9.0219V8.57743C7.35226 8.31376 7.26186 8.23089 6.99065 8.23089H6.54618C6.27497 8.23089 6.18457 8.31376 6.18457 8.57743V9.0219C6.18457 9.29311 6.27497 9.37598 6.54618 9.37598ZM9.00963 9.37598H9.4541C9.71777 9.37598 9.80818 9.29311 9.80818 9.0219V8.57743C9.80818 8.31376 9.71777 8.23089 9.4541 8.23089H9.00963C8.73842 8.23089 8.64802 8.31376 8.64802 8.57743V9.0219C8.64802 9.29311 8.73842 9.37598 9.00963 9.37598ZM11.4655 9.37598H11.91C12.1812 9.37598 12.2716 9.29311 12.2716 9.0219V8.57743C12.2716 8.31376 12.1812 8.23089 11.91 8.23089H11.4655C11.2019 8.23089 11.1115 8.31376 11.1115 8.57743V9.0219C11.1115 9.29311 11.2019 9.37598 11.4655 9.37598ZM4.09026 11.7942H4.5272C4.79841 11.7942 4.88881 11.7114 4.88881 11.4477V11.0032C4.88881 10.732 4.79841 10.6491 4.5272 10.6491H4.09026C3.81906 10.6491 3.72866 10.732 3.72866 11.0032V11.4477C3.72866 11.7114 3.81906 11.7942 4.09026 11.7942ZM6.54618 11.7942H6.99065C7.26186 11.7942 7.35226 11.7114 7.35226 11.4477V11.0032C7.35226 10.732 7.26186 10.6491 6.99065 10.6491H6.54618C6.27497 10.6491 6.18457 10.732 6.18457 11.0032V11.4477C6.18457 11.7114 6.27497 11.7942 6.54618 11.7942ZM9.00963 11.7942H9.4541C9.71777 11.7942 9.80818 11.7114 9.80818 11.4477V11.0032C9.80818 10.732 9.71777 10.6491 9.4541 10.6491H9.00963C8.73842 10.6491 8.64802 10.732 8.64802 11.0032V11.4477C8.64802 11.7114 8.73842 11.7942 9.00963 11.7942Z" fill="#767779"/>
</svg>
